<svg width="84" height="20" viewBox="0 0 84 20" fill="none" xmlns="http://www.w3.org/2000/svg">
<path d="M43.95 5.5H42.375L39.045 11.05L35.7 5.5H34.125V16H35.52V7.81L38.955 13.51H39.135L42.57 7.795V16H43.95V5.5ZM52.2703 8.5V9.79C51.6703 8.875 50.7103 8.305 49.4353 8.305C47.3503 8.305 45.6403 10.03 45.6403 12.25C45.6403 14.47 47.3503 16.195 49.4353 16.195C50.7103 16.195 51.6703 15.625 52.2703 14.71V16H53.5753V8.5H52.2703ZM49.6003 14.935C48.1003 14.935 46.9453 13.78 46.9453 12.25C46.9453 10.72 48.1003 9.565 49.6003 9.565C51.1153 9.565 52.2703 10.72 52.2703 12.25C52.2703 13.78 51.1153 14.935 49.6003 14.935ZM56.8575 9.76V8.5H55.5525V16H56.8575V12.025C56.8575 10.255 58.0725 9.685 59.1975 9.73V8.365C58.2525 8.365 57.3375 8.71 56.8575 9.76ZM66.8194 16L63.1144 12.13L66.6994 8.5H65.0194L61.7794 11.815V5.5H60.4744V16H61.7794V12.445L65.1994 16H66.8194ZM68.2595 12.85H74.5445C74.5745 12.655 74.5895 12.46 74.5895 12.265C74.5895 10.165 73.1195 8.305 70.8545 8.305C68.5145 8.305 66.9245 10.03 66.9245 12.25C66.9245 14.5 68.5295 16.195 70.9445 16.195C72.4445 16.195 73.5845 15.52 74.2445 14.5L73.1345 13.87C72.7595 14.485 72.0095 14.965 70.9745 14.965C69.5795 14.965 68.5145 14.2 68.2595 12.85ZM70.8545 9.535C71.9795 9.535 73.0445 10.225 73.2695 11.71H68.2595C68.4695 10.405 69.4445 9.535 70.8545 9.535ZM79.9499 9.76V8.5H77.9549V6.4L76.6499 6.79V8.5H75.1649V9.76H76.6499V13.825C76.6499 15.7 77.6999 16.3 79.9499 16V14.83C78.6149 14.89 77.9549 14.965 77.9549 13.825V9.76H79.9499Z" fill="#727191"/>
<path d="M16.8173 6.22053C16.0542 6.22053 15.4356 5.60189 15.4356 4.83876C15.4356 4.07564 16.0542 3.457 16.8173 3.457C17.5805 3.457 18.1991 4.07564 18.1991 4.83876C18.1991 5.60189 17.5805 6.22053 16.8173 6.22053Z" stroke="#727191" stroke-width="1.5"/>
<path fill-rule="evenodd" clip-rule="evenodd" d="M3.39496 11.2341C3.39496 12.9553 3.48915 14.2362 3.70411 15.2034C3.91529 16.1537 4.22258 16.7069 4.58589 17.0702C4.9492 17.4335 5.50244 17.7408 6.45267 17.952C7.41994 18.1669 8.70075 18.2611 10.422 18.2611C12.1433 18.2611 13.4241 18.1669 14.3914 17.952C15.3416 17.7408 15.8949 17.4335 16.2582 17.0702C16.6215 16.7069 16.9288 16.1537 17.1399 15.2034C17.3549 14.2362 17.4491 12.9553 17.4491 11.2341C17.4491 9.51279 17.3549 8.23198 17.1399 7.26471C17.116 7.15692 17.0908 7.05424 17.0644 6.95636C17.6023 6.89427 18.0793 6.63195 18.4188 6.24583C18.8099 7.47364 18.9491 9.09879 18.9491 11.2341C18.9491 18.2561 17.4441 19.7611 10.422 19.7611C3.39999 19.7611 1.89496 18.2561 1.89496 11.2341C1.89496 4.21202 3.39999 2.707 10.422 2.707C12.5573 2.707 14.1825 2.84616 15.4103 3.2373C15.0241 3.57681 14.7618 4.05375 14.6997 4.59167C14.6019 4.5653 14.4992 4.54011 14.3914 4.51615C13.4241 4.30118 12.1433 4.207 10.422 4.207C8.70075 4.207 7.41994 4.30118 6.45267 4.51615C5.50244 4.72733 4.9492 5.03461 4.58589 5.39793C4.22258 5.76124 3.91529 6.31448 3.70411 7.26471C3.48915 8.23198 3.39496 9.51279 3.39496 11.2341Z" fill="#727191"/>
<path d="M6.15849 12.6552C6.15849 12.6552 8.12632 7.68112 10.422 11.2341C12.7178 14.787 14.6856 9.81289 14.6856 9.81289" stroke="#727191" stroke-width="1.5" stroke-linecap="round" stroke-linejoin="round"/>
</svg>
