<svg width="110" height="18" viewBox="0 0 110 18" fill="none" xmlns="http://www.w3.org/2000/svg">
<path d="M40.04 14H41.525L37.61 3.5H36.035L32.12 14H33.605L34.46 11.645H39.185L40.04 14ZM34.94 10.34L36.815 5.165L38.705 10.34H34.94ZM45.9779 14.195C47.4479 14.195 48.7229 13.415 49.3529 12.245L48.2429 11.6C47.8229 12.38 46.9979 12.905 45.9779 12.905C44.4779 12.905 43.3379 11.75 43.3379 10.25C43.3379 8.735 44.4779 7.58 45.9779 7.58C46.9829 7.58 47.8229 8.105 48.1979 8.9L49.2929 8.27C48.7229 7.085 47.4629 6.305 45.9779 6.305C43.7129 6.305 42.0329 8.03 42.0329 10.25C42.0329 12.47 43.7129 14.195 45.9779 14.195ZM54.7214 7.76V6.5H52.7264V4.4L51.4214 4.79V6.5H49.9364V7.76H51.4214V11.825C51.4214 13.7 52.4714 14.3 54.7214 14V12.83C53.3864 12.89 52.7264 12.965 52.7264 11.825V7.76H54.7214ZM56.9264 5.135C57.4064 5.135 57.7964 4.745 57.7964 4.265C57.7964 3.785 57.4064 3.38 56.9264 3.38C56.4314 3.38 56.0414 3.785 56.0414 4.265C56.0414 4.745 56.4314 5.135 56.9264 5.135ZM56.2664 14H57.5714V6.5H56.2664V14ZM64.8123 6.5L62.4573 12.605L60.1023 6.5H58.6923L61.6923 14H63.2223L66.2223 6.5H64.8123ZM67.948 10.85H74.233C74.263 10.655 74.278 10.46 74.278 10.265C74.278 8.165 72.808 6.305 70.543 6.305C68.203 6.305 66.613 8.03 66.613 10.25C66.613 12.5 68.218 14.195 70.633 14.195C72.133 14.195 73.273 13.52 73.933 12.5L72.823 11.87C72.448 12.485 71.698 12.965 70.663 12.965C69.268 12.965 68.203 12.2 67.948 10.85ZM70.543 7.535C71.668 7.535 72.733 8.225 72.958 9.71H67.948C68.158 8.405 69.133 7.535 70.543 7.535ZM85.6631 8.555C86.3531 8.075 86.8031 7.31 86.8031 6.365C86.8031 4.745 85.4981 3.5 83.8631 3.5H79.6631V14H84.1931C85.8881 14 87.2381 12.71 87.2381 11.03C87.2381 9.89 86.6081 9.005 85.6631 8.555ZM83.8631 4.805C84.7331 4.805 85.4231 5.525 85.4231 6.41C85.4231 7.31 84.7331 8.015 83.8631 8.015H81.0581V4.805H83.8631ZM84.1931 12.695H81.0581V9.29H84.1931C85.1231 9.29 85.8581 10.04 85.8581 10.985C85.8581 11.945 85.1231 12.695 84.1931 12.695ZM89.4166 5.135C89.8966 5.135 90.2866 4.745 90.2866 4.265C90.2866 3.785 89.8966 3.38 89.4166 3.38C88.9216 3.38 88.5316 3.785 88.5316 4.265C88.5316 4.745 88.9216 5.135 89.4166 5.135ZM88.7566 14H90.0616V6.5H88.7566V14ZM98.2625 3.5V7.79C97.6625 6.875 96.7025 6.305 95.4275 6.305C93.3425 6.305 91.6325 8.03 91.6325 10.25C91.6325 12.47 93.3425 14.195 95.4275 14.195C96.7025 14.195 97.6625 13.625 98.2625 12.71V14H99.5675V3.5H98.2625ZM95.5925 12.935C94.0925 12.935 92.9375 11.78 92.9375 10.25C92.9375 8.72 94.0925 7.565 95.5925 7.565C97.1075 7.565 98.2625 8.72 98.2625 10.25C98.2625 11.78 97.1075 12.935 95.5925 12.935ZM102.655 8.525C102.655 7.85 103.315 7.52 103.99 7.52C104.65 7.52 105.31 7.805 105.595 8.48L106.69 7.865C106.21 6.89 105.22 6.305 103.99 6.305C102.475 6.305 101.335 7.22 101.335 8.54C101.335 11.255 105.535 10.34 105.535 11.945C105.535 12.68 104.845 12.965 104.05 12.965C103.12 12.965 102.43 12.515 102.19 11.795L101.065 12.44C101.5 13.475 102.55 14.195 104.05 14.195C105.655 14.195 106.855 13.34 106.855 11.945C106.855 9.185 102.655 10.13 102.655 8.525Z" fill="#727191"/>
<path d="M1.79368 7.91214C1.50211 7.91214 1.44066 7.90992 1.3973 7.90314C1.07952 7.85347 0.808891 7.57445 0.768938 7.2553C0.763394 7.21101 0.762914 7.15777 0.771055 6.8911C0.806576 5.72752 0.90035 5.03296 1.10755 4.47631C1.49818 3.42686 2.032 2.81876 2.84588 2.36257C3.55015 1.96781 4.65696 1.75 6.92623 1.75H10.0738C12.343 1.75 13.4498 1.96781 14.1541 2.36257C14.968 2.81876 15.5018 3.42687 15.8925 4.47631C16.0996 5.03296 16.1934 5.72751 16.2289 6.89109C16.2371 7.15777 16.2366 7.21102 16.2311 7.25531C16.1911 7.57445 15.9205 7.85347 15.6027 7.90314C15.5593 7.90992 15.4979 7.91214 15.2063 7.91214C14.1918 7.91214 13.616 8.86039 13.616 9.69333C13.616 10.5263 14.1918 11.4745 15.2063 11.4745C15.4888 11.4745 15.5475 11.4767 15.5907 11.4833C15.9077 11.5324 16.1872 11.8251 16.2216 12.1441C16.2264 12.1886 16.2262 12.2358 16.2148 12.4821C16.1711 13.4284 16.0755 14.0319 15.8925 14.5237C15.5018 15.5731 14.968 16.1812 14.1541 16.6374C13.4498 17.0322 12.343 17.25 10.0738 17.25H6.92623C4.65696 17.25 3.55015 17.0322 2.84588 16.6374C2.032 16.1812 1.49818 15.5731 1.10755 14.5237C0.924508 14.0319 0.828871 13.4284 0.785191 12.4821C0.773821 12.2358 0.773618 12.1887 0.778428 12.1441C0.812839 11.8251 1.09234 11.5324 1.40935 11.4833C1.45249 11.4767 1.51122 11.4745 1.79368 11.4745C2.80818 11.4745 3.38401 10.5263 3.38401 9.69333C3.38401 8.86039 2.80818 7.91214 1.79368 7.91214Z" stroke="#727191" stroke-width="1.5"/>
<path fill-rule="evenodd" clip-rule="evenodd" d="M10.625 3.79166C11.0392 3.79166 11.375 4.12745 11.375 4.54166V5.95833C11.375 6.37254 11.0392 6.70833 10.625 6.70833C10.2108 6.70833 9.875 6.37254 9.875 5.95833L9.875 4.54166C9.875 4.12745 10.2108 3.79166 10.625 3.79166ZM10.625 8.04167C11.0392 8.04167 11.375 8.37745 11.375 8.79167V10.2083C11.375 10.6225 11.0392 10.9583 10.625 10.9583C10.2108 10.9583 9.875 10.6225 9.875 10.2083L9.875 8.79167C9.875 8.37745 10.2108 8.04167 10.625 8.04167ZM11.375 13.0417C11.375 12.6275 11.0392 12.2917 10.625 12.2917C10.2108 12.2917 9.875 12.6275 9.875 13.0417L9.875 14.4583C9.875 14.8725 10.2108 15.2083 10.625 15.2083C11.0392 15.2083 11.375 14.8725 11.375 14.4583V13.0417Z" fill="#727191"/>
</svg>
